<?xml version="1.0" encoding="utf-8"?>
<!-- Generator: Adobe Illustrator 17.0.0, SVG Export Plug-In . SVG Version: 6.00 Build 0)  -->
<!DOCTYPE svg PUBLIC "-//W3C//DTD SVG 1.1//EN" "http://www.w3.org/Graphics/SVG/1.1/DTD/svg11.dtd">
<svg version="1.1" id="Calque_1" xmlns="http://www.w3.org/2000/svg" xmlns:xlink="http://www.w3.org/1999/xlink" x="0px" y="0px"
	 width="350px" height="114px" viewBox="0 0 350 114" enable-background="new 0 0 350 114" xml:space="preserve">
<g>
	<g>
		<polygon fill="#C8252C" points="261.261,101.002 261.261,88.81 256.711,88.81 256.711,87.181 267.662,87.181 267.662,88.81 
			263.091,88.81 263.091,101.002 		"/>
		<rect x="278.419" y="87.181" fill="#C8252C" width="1.828" height="13.824"/>
		<polygon fill="#C8252C" points="315.615,101.002 315.615,87.181 317.489,87.181 324.748,98.032 324.748,87.181 326.504,87.181 
			326.504,101.002 324.628,101.002 317.369,90.143 317.369,101.002 		"/>
		<polygon fill="#C8252C" points="64.311,58.92 55.269,64.057 55.269,68.665 64.311,63.506 		"/>
		<polygon fill="#C8252C" points="64.311,66.204 55.269,71.334 55.269,75.942 64.311,70.789 		"/>
		<polygon fill="#C8252C" points="55.269,82.752 64.312,77.595 64.312,73.01 55.269,78.136 		"/>
		<polygon fill="#C8252C" points="78.584,25.278 66.336,32.168 66.336,36.738 78.584,29.813 		"/>
		<polygon fill="#C8252C" points="78.584,32.628 66.336,39.526 66.336,44.302 78.584,37.217 		"/>
		<polygon fill="#C8252C" points="66.335,51.443 78.583,44.509 78.583,39.955 66.335,46.806 		"/>
		<path d="M39.812,70.461c-6.03-22.25,12.35-46.584,41.052-54.36c14.336-3.891,28.526-2.908,39.9,1.816
			c-13.198-5.941-30.742-7.236-48.634-2.38c-32.51,8.805-53.833,34.51-47.631,57.415c6.208,22.903,37.597,34.318,70.115,25.514
			c0.357-0.106,0.717-0.203,1.082-0.315C69.548,102.43,45.346,90.884,39.812,70.461"/>
		<path fill="#C8252C" d="M103.257,86.804V45.589l10.124-4.533v-5.698L80.796,23.95L80.688,88.95
			c-2.063-0.05-4.075-0.162-6.036-0.344V60.297l-8.339-2.666v29.768c-3.959-0.813-7.537-1.89-10.578-3.217
			c7.315,5.551,18.589,9.108,31.252,9.108c18.498,0,34.048-7.58,38.583-17.88C121.915,80.279,113.756,84.421,103.257,86.804"/>
		<path d="M170.543,52.547c2.46-0.672,4.311-1.895,5.557-3.673c1.235-1.781,1.857-3.777,1.857-5.978
			c0-3.018-1.068-5.706-3.211-8.055c-2.127-2.355-5.532-3.528-10.192-3.528H142.12v44.182h21.045c6.6,0,10.913-1.291,12.934-3.87
			c2.017-2.574,3.026-5.503,3.026-8.785C179.127,57.356,176.266,53.925,170.543,52.547 M154.622,40.796h6.048
			c3.024,0,4.533,1.227,4.533,3.685c0,0.91-0.325,1.764-0.972,2.558c-0.649,0.8-1.758,1.196-3.329,1.196h-6.281V40.796z
			 M164.832,64.438c-0.763,0.815-1.969,1.217-3.609,1.217h-6.602v-8.026h6.146c1.986,0,3.354,0.423,4.1,1.275
			c0.742,0.856,1.113,1.791,1.113,2.798C165.981,62.722,165.593,63.636,164.832,64.438"/>
		<path d="M325.572,69.086V55.942c0-3.557-0.22-5.968-0.663-7.213c-0.446-1.256-1.314-2.442-2.612-3.569
			c-1.289-1.117-5.584-3.857-12.623-3.773c-8.886,0.093-14.377,3.362-16.581,9.044c4.318,0.321,8.2,1.341,11.222,2.838
			c0.365-2.359,2.021-3.54,4.977-3.54c1.265,0,2.234,0.243,2.894,0.713c0.657,0.475,0.989,1.434,0.989,2.883v0.746
			c-2.371,0.124-4.519,0.328-6.463,0.597c-4.664,0.663-8.127,1.752-10.354,3.265c-3.165,2.15-4.74,4.962-4.74,8.436
			c0,1.973,0.57,3.768,1.71,5.391c0.346,0.497,0.732,0.978,1.184,1.439c1.932,1.984,4.84,2.972,8.718,2.972
			c4.73,0,8.262-1.754,10.592-5.273c0,1.669,0.147,3.196,0.456,4.597h12.298C325.908,73.729,325.572,71.592,325.572,69.086
			 M313.174,61.677c0,2.805-0.483,4.616-1.461,5.437c-0.968,0.819-2.145,1.231-3.528,1.231c-0.827,0-1.501-0.151-2.017-0.437
			c-0.829-0.473-1.25-1.316-1.25-2.545c0-2.46,1.942-4.092,5.82-4.902c0.742-0.155,1.548-0.28,2.436-0.377V61.677z"/>
		<path d="M211.865,45.495c-3.049-2.394-6.851-3.598-11.411-3.598c-5.435,0-9.786,1.693-13.042,5.08
			c-3.261,3.391-4.892,7.541-4.892,12.462c0,4.751,1.656,8.729,4.956,11.931c3.296,3.2,7.723,4.803,13.268,4.803
			c4.989,0,8.944-1.132,11.871-3.41c2.373-1.853,4.005-4.032,4.925-6.517c-4.376-0.207-8.351-1.144-11.502-2.56l-0.017-0.008
			c-0.493,2.695-2.147,4.052-4.952,4.052c-1.938,0-3.254-0.502-3.951-1.505c-0.686-1.007-1.057-2.548-1.101-4.614h6.473h15.577
			c0.021-0.8,0.031-1.426,0.031-1.882c0-5.501-1.627-9.848-4.875-13.038C212.792,46.259,212.334,45.866,211.865,45.495
			 M198.908,55.133h-2.921c0-3.754,1.528-5.634,4.583-5.634c0.545,0,1.053,0.087,1.534,0.226c0.634,0.187,1.206,0.487,1.71,0.929
			c0.867,0.763,1.312,2.261,1.333,4.479H198.908z"/>
		<path d="M246.78,54.957c-1.416-0.458-3.775-0.914-7.083-1.358c-1.175-0.155-2.471-0.321-3.893-0.475
			c-2.071-0.238-3.107-0.891-3.107-1.973c0-0.365,0.344-0.738,1.02-1.113c0.63-0.35,1.567-0.533,2.796-0.56l0.292-0.01
			c2.624,0,4.43,0.796,5.427,2.371c2.962-0.883,6.391-1.385,10.041-1.399c-2.22-5.692-7.296-8.544-15.235-8.544
			c-4.556,0-8.235,1.043-11.038,3.124l-0.276,0.224c-2.616,2.048-3.934,4.695-3.934,7.947c0,2.417,0.833,4.614,2.492,6.592
			c1.341,1.592,4.314,2.84,8.917,3.754c1.111,0.22,2.313,0.417,3.607,0.601c2.419,0.319,3.951,0.638,4.595,0.949
			c0.651,0.315,0.974,0.75,0.974,1.314c0,1.296-1.673,1.944-5.018,1.944c-4.03,0-6.343-1.19-6.927-3.561l-0.856,0.11
			c-2.763,0.827-5.924,1.32-9.299,1.389c2.143,6.596,7.638,9.889,16.5,9.889c5.292,0,9.442-1.053,12.449-3.167
			c3.014-2.12,4.515-4.989,4.515-8.588c0-2.357-0.68-4.365-2.04-6.024C250.339,56.727,248.705,55.583,246.78,54.957"/>
		<path d="M281.904,54.957c-3.644-0.962-9.867-1.712-10.974-1.832c-2.071-0.238-3.111-0.891-3.111-1.973
			c0-0.365,0.346-0.738,1.02-1.113c0.425-0.234,1.007-0.394,1.704-0.481c0.419-0.052,0.871-0.089,1.387-0.089
			c2.914,0,4.828,0.972,5.731,2.916c0,0,5.074-2.046,9.732-1.957c-2.226-5.686-7.298-8.532-15.237-8.532
			c-4.55,0-8.227,1.043-11.036,3.124c-0.301,0.22-0.572,0.454-0.842,0.688c-2.239,1.988-3.362,4.471-3.362,7.483
			c0,2.417,0.823,4.614,2.485,6.592c1.364,1.615,4.438,2.887,9.193,3.802c0.556,0.108,1.13,0.209,1.739,0.309
			c0.516,0.083,1.047,0.164,1.596,0.245c2.419,0.319,3.955,0.638,4.6,0.949c0.649,0.315,0.968,0.75,0.968,1.314
			c0,0.956-0.922,1.557-2.761,1.814c-0.639,0.085-1.389,0.131-2.253,0.131c-3.969,0-6.268-1.155-6.892-3.453
			c-2.902,1.036-6.33,1.687-10.032,1.834c2.245,6.293,7.684,9.446,16.34,9.446c5.288,0,9.437-1.053,12.443-3.167
			c0.597-0.419,1.115-0.873,1.596-1.347c1.934-1.938,2.927-4.347,2.927-7.24c0-2.357-0.684-4.365-2.042-6.024
			C285.463,56.727,283.856,55.475,281.904,54.957"/>
		<path fill="#C8252C" d="M141.952,101.002V87.181h5.215c0.916,0,1.619,0.044,2.1,0.133c0.68,0.112,1.25,0.328,1.71,0.645
			c0.456,0.313,0.825,0.763,1.107,1.335c0.278,0.57,0.419,1.2,0.419,1.884c0,1.173-0.375,2.172-1.121,2.985
			c-0.748,0.817-2.1,1.217-4.054,1.217h-3.544v5.624H141.952z M143.782,93.75h3.574c1.181,0,2.019-0.218,2.516-0.655
			c0.497-0.446,0.744-1.061,0.744-1.857c0-0.578-0.145-1.078-0.437-1.488c-0.294-0.406-0.676-0.684-1.157-0.813
			c-0.307-0.083-0.877-0.126-1.706-0.126h-3.534V93.75z"/>
		<path fill="#C8252C" d="M163.429,101.003V87.182h6.127c1.231,0,2.17,0.124,2.811,0.375c0.641,0.245,1.153,0.684,1.538,1.312
			c0.379,0.626,0.572,1.325,0.572,2.081c0,0.983-0.315,1.807-0.951,2.481c-0.634,0.67-1.615,1.097-2.943,1.279
			c0.487,0.236,0.854,0.46,1.107,0.694c0.531,0.487,1.04,1.099,1.517,1.834l2.404,3.764h-2.301l-1.828-2.877
			c-0.535-0.831-0.978-1.461-1.324-1.901c-0.344-0.444-0.651-0.75-0.924-0.929c-0.274-0.178-0.554-0.294-0.835-0.367
			c-0.207-0.048-0.545-0.066-1.02-0.066h-2.118v6.14H163.429z M165.259,93.28h3.93c0.837,0,1.486-0.083,1.961-0.261
			c0.471-0.172,0.831-0.448,1.074-0.829c0.247-0.381,0.369-0.794,0.369-1.24c0-0.653-0.236-1.19-0.713-1.606
			c-0.473-0.425-1.223-0.632-2.249-0.632h-4.371V93.28z"/>
		<path fill="#C8252C" d="M185.358,94.267c0-2.293,0.618-4.081,1.851-5.383c1.229-1.302,2.819-1.948,4.765-1.948
			c1.279,0,2.429,0.309,3.453,0.916c1.024,0.609,1.805,1.453,2.342,2.552c0.537,1.088,0.804,2.324,0.804,3.702
			c0,1.41-0.282,2.664-0.846,3.766c-0.568,1.105-1.368,1.94-2.405,2.512c-1.038,0.572-2.156,0.856-3.358,0.856
			c-1.3,0-2.46-0.315-3.484-0.939c-1.024-0.636-1.801-1.497-2.33-2.583C185.622,96.632,185.358,95.484,185.358,94.267
			 M187.245,94.298c0,1.664,0.448,2.979,1.343,3.938c0.895,0.953,2.019,1.434,3.37,1.434c1.376,0,2.51-0.485,3.399-1.449
			c0.887-0.968,1.335-2.34,1.335-4.123c0-1.128-0.191-2.11-0.574-2.943c-0.377-0.842-0.933-1.488-1.664-1.955
			c-0.736-0.46-1.555-0.688-2.469-0.688c-1.293,0-2.407,0.444-3.341,1.333C187.713,90.731,187.245,92.215,187.245,94.298"/>
		<path fill="#C8252C" d="M209.449,101.002V87.181h2.751l3.271,9.788c0.305,0.912,0.52,1.59,0.663,2.046
			c0.155-0.506,0.398-1.244,0.734-2.214l3.308-9.62h2.458v13.822h-1.76V89.438l-4.015,11.564h-1.652l-3.994-11.765v11.765H209.449z"
			/>
		<path fill="#C8252C" d="M233.602,94.267c0-2.293,0.616-4.081,1.845-5.383c1.233-1.302,2.825-1.948,4.772-1.948
			c1.275,0,2.427,0.309,3.451,0.916c1.02,0.609,1.803,1.453,2.342,2.552c0.537,1.088,0.804,2.324,0.804,3.702
			c0,1.41-0.282,2.664-0.848,3.766c-0.566,1.105-1.368,1.94-2.404,2.512s-2.154,0.856-3.356,0.856c-1.302,0-2.46-0.315-3.486-0.939
			c-1.024-0.636-1.801-1.497-2.328-2.583C233.865,96.632,233.602,95.484,233.602,94.267 M235.488,94.298
			c0,1.664,0.446,2.979,1.341,3.938c0.895,0.953,2.019,1.434,3.37,1.434c1.378,0,2.508-0.485,3.399-1.449
			c0.889-0.968,1.333-2.34,1.333-4.123c0-1.128-0.191-2.11-0.57-2.943c-0.379-0.842-0.937-1.488-1.669-1.955
			c-0.732-0.46-1.552-0.688-2.464-0.688c-1.296,0-2.409,0.444-3.344,1.333C235.953,90.731,235.488,92.215,235.488,94.298"/>
		<path fill="#C8252C" d="M291.491,94.267c0-2.293,0.613-4.081,1.845-5.383c1.231-1.302,2.825-1.948,4.769-1.948
			c1.277,0,2.425,0.309,3.451,0.916c1.024,0.609,1.805,1.453,2.342,2.552c0.537,1.088,0.806,2.324,0.806,3.702
			c0,1.41-0.284,2.664-0.848,3.766c-0.566,1.105-1.368,1.94-2.405,2.512c-1.038,0.572-2.156,0.856-3.358,0.856
			c-1.3,0-2.458-0.315-3.484-0.939c-1.024-0.636-1.801-1.497-2.33-2.583C291.754,96.632,291.491,95.484,291.491,94.267
			 M293.373,94.298c0,1.664,0.45,2.979,1.343,3.938c0.895,0.953,2.019,1.434,3.37,1.434c1.376,0,2.508-0.485,3.399-1.449
			c0.891-0.968,1.335-2.34,1.335-4.123c0-1.128-0.189-2.11-0.572-2.943c-0.379-0.842-0.935-1.488-1.667-1.955
			c-0.736-0.46-1.555-0.688-2.469-0.688c-1.291,0-2.407,0.444-3.339,1.333C293.844,90.731,293.373,92.215,293.373,94.298"/>
	</g>
</g>
</svg>
